<svg width="18" height="19" viewBox="0 0 18 19" fill="none" xmlns="http://www.w3.org/2000/svg">
<path d="M9 0.5C13.9706 0.5 18 4.52944 18 9.5C18 14.4706 13.9706 18.5 9 18.5C4.02944 18.5 0 14.4706 0 9.5C0 4.52944 4.02944 0.5 9 0.5ZM9 4.75C8.36487 4.75 7.84961 5.26526 7.84961 5.90039V8.52539C7.84961 9.57264 8.46684 10.5219 9.42383 10.9473L12.583 12.3516C13.1633 12.6094 13.8426 12.3478 14.1006 11.7676C14.3585 11.1872 14.097 10.507 13.5166 10.249L10.3574 8.8457C10.2312 8.78947 10.1504 8.66362 10.1504 8.52539V5.90039C10.1504 5.26526 9.63513 4.75 9 4.75Z" fill="#F7BE65"/>
</svg>
