<svg width="15" height="15" viewBox="0 0 15 15" fill="none" xmlns="http://www.w3.org/2000/svg">
<path d="M4.13321 2.18517C3.802 1.86129 3.80212 1.32832 4.13349 1.0046C4.45427 0.691221 4.96657 0.691297 5.28726 1.00477L11.1434 6.72912C11.2471 6.82988 11.3294 6.9497 11.3855 7.08168C11.4417 7.21365 11.4706 7.35519 11.4706 7.49814C11.4706 7.64108 11.4417 7.78262 11.3855 7.9146C11.3294 8.04658 11.2471 8.16639 11.1434 8.26715L5.28721 13.9945C4.96662 14.3081 4.45428 14.3081 4.13365 13.9946C3.80275 13.671 3.80272 13.1386 4.1336 12.815L9.56826 7.49977L4.13321 2.18517Z" fill="#4190FF"/>
</svg>
