<svg width="59" height="60" viewBox="0 0 59 60" fill="none" xmlns="http://www.w3.org/2000/svg">
<path d="M29.4473 0C45.76 0 58.9844 13.2244 58.9844 29.5371C58.9842 45.8497 45.7599 59.0732 29.4473 59.0732C14.0417 59.0731 1.3935 47.2791 0.0341797 32.2275H32.8232L21.1807 43.8701C20.2049 44.8464 20.2047 46.4291 21.1807 47.4053C22.157 48.3815 23.7405 48.3815 24.7168 47.4053L40.626 31.4951C41.6023 30.5188 41.6022 28.9363 40.626 27.96L24.7168 12.0498C23.7405 11.0735 22.157 11.0735 21.1807 12.0498C20.2047 13.026 20.2048 14.6087 21.1807 15.585L32.8232 27.2275H0C1.17807 11.9942 13.9118 0.000135022 29.4473 0Z" fill="#FEFEFE"/>
</svg>
