<svg width="16" height="22" viewBox="0 0 16 22" fill="none" xmlns="http://www.w3.org/2000/svg">
<path d="M8 10.95C7.2896 10.95 6.60829 10.6603 6.10596 10.1445C5.60363 9.62882 5.32143 8.92935 5.32143 8.2C5.32143 7.47065 5.60363 6.77118 6.10596 6.25546C6.60829 5.73973 7.2896 5.45 8 5.45C8.7104 5.45 9.39171 5.73973 9.89404 6.25546C10.3964 6.77118 10.6786 7.47065 10.6786 8.2C10.6786 8.56114 10.6093 8.91873 10.4747 9.25238C10.3401 9.58603 10.1428 9.88918 9.89404 10.1445C9.64531 10.3999 9.35002 10.6025 9.02505 10.7407C8.70007 10.8789 8.35175 10.95 8 10.95ZM8 0.5C6.01088 0.5 4.10322 1.31125 2.6967 2.75528C1.29018 4.19931 0.5 6.15783 0.5 8.2C0.5 12.3566 4.38531 17.9377 6.56302 20.7395C7.30295 21.6915 8.69705 21.6915 9.43698 20.7395C11.6147 17.9377 15.5 12.3566 15.5 8.2C15.5 6.15783 14.7098 4.19931 13.3033 2.75528C11.8968 1.31125 9.98912 0.5 8 0.5Z" fill="#F7BE65"/>
</svg>
