<svg width="22" height="22" viewBox="0 0 22 22" fill="none" xmlns="http://www.w3.org/2000/svg">
<rect x="0.000123978" width="21.4707" height="21.4707" rx="2.97233" fill="#FEFEFE"/>
<path d="M11.0565 11.2754C12.0964 11.9049 13.7336 11.8471 14.9913 11.161C16.1295 10.6088 17.0088 9.22997 17.0538 7.92692C17.1752 6.62913 16.4793 5.14175 15.4215 4.43821C14.9118 4.06983 14.2275 3.84065 13.4938 3.81824C12.7602 3.79582 11.9773 3.98017 11.3007 4.31229C6.349 6.70865 3.76796 12.2376 4.72679 17.5652C4.732 17.6134 4.78535 17.6588 4.83184 17.6547C4.87841 17.6576 4.9307 17.6109 4.9348 17.5627C5.08149 16.5884 5.41734 15.4085 5.75378 14.6335C6.18803 15.1603 6.90173 15.5776 7.65551 15.6814C8.40929 15.7852 9.20316 15.5756 9.75479 15.1845C10.2881 14.8336 10.7683 14.2187 10.9935 13.5098C11.2188 12.8009 11.1892 11.9981 10.9499 11.3718C10.9382 11.3441 10.948 11.3039 10.9709 11.2852C10.9919 11.2642 11.0315 11.2597 11.0565 11.2754Z" fill="#4190FF"/>
</svg>
