<svg width="22" height="22" viewBox="0 0 22 22" fill="none" xmlns="http://www.w3.org/2000/svg">
<rect x="-0.00012207" width="21.4707" height="21.4707" rx="2.97233" fill="#4190FF"/>
<path d="M11.0563 11.2754C12.0962 11.9049 13.7334 11.8471 14.9911 11.161C16.1293 10.6088 17.0086 9.22997 17.0536 7.92692C17.175 6.62913 16.4791 5.14175 15.4213 4.43821C14.9116 4.06983 14.2273 3.84065 13.4937 3.81824C12.76 3.79582 11.9771 3.98017 11.3005 4.31229C6.34881 6.70865 3.76777 12.2376 4.7266 17.5652C4.73181 17.6134 4.78516 17.6588 4.83165 17.6547C4.87822 17.6576 4.93051 17.6109 4.93461 17.5627C5.0813 16.5884 5.41715 15.4085 5.75359 14.6335C6.18784 15.1603 6.90155 15.5776 7.65532 15.6814C8.4091 15.7852 9.20297 15.5756 9.7546 15.1845C10.2879 14.8336 10.7681 14.2187 10.9933 13.5098C11.2186 12.8009 11.189 11.9981 10.9497 11.3718C10.9381 11.3441 10.9478 11.3039 10.9707 11.2852C10.9917 11.2642 11.0313 11.2597 11.0563 11.2754Z" fill="#FEFEFE"/>
</svg>
