<svg width="21" height="24" viewBox="0 0 21 24" fill="none" xmlns="http://www.w3.org/2000/svg">
<path d="M10.7942 12.5306C12.5139 13.5881 15.2213 13.491 17.3011 12.3384C19.1833 11.4107 20.6374 9.09442 20.7118 6.90538C20.9126 4.72518 19.7617 2.22648 18.0125 1.04458C17.1697 0.425741 16.038 0.040736 14.8248 0.00307802C13.6117 -0.03458 12.317 0.275109 11.1981 0.83305C3.00967 4.85877 -1.25849 14.147 0.327078 23.0971C0.335691 23.1779 0.423922 23.2542 0.500796 23.2474C0.577804 23.2523 0.664279 23.1738 0.671057 23.0927C0.913633 21.456 1.46901 19.4739 2.02538 18.1719C2.74348 19.057 3.9237 19.7579 5.1702 19.9324C6.41669 20.1068 7.72947 19.7546 8.64169 19.0977C9.52365 18.5082 10.3176 17.4751 10.6902 16.2843C11.0627 15.0934 11.0137 13.7447 10.6179 12.6926C10.5987 12.6459 10.6148 12.5785 10.6527 12.547C10.6874 12.5118 10.753 12.5042 10.7942 12.5306Z" fill="#4190FF"/>
</svg>
