<svg width="46" height="24" viewBox="0 0 46 24" fill="none" xmlns="http://www.w3.org/2000/svg">
<path d="M0.76106 17.3557C5.99252 12.6723 5.84764 5.85461 5.12127 3.03119L8.72702 1.61035C10.1626 5.15483 9.6573 8.8178 9.22522 10.2062C12.5921 10.2062 11.7253 12.4865 11.7253 20.2433H8.13232V13.3189C7.13937 16.1932 4.58294 18.7844 3.42885 19.7207L0.76106 17.3557Z" fill="#4190FF"/>
<path d="M22.3704 23.14V0.111328C18.7011 0.111328 18.8682 3.12236 18.8682 8.32146H17.151V0.744374C12.974 0.744374 13.6366 0.744374 13.6366 22.5604L17.151 22.562V11.8089H18.8682V23.14H22.3704Z" fill="#4190FF"/>
<path d="M43.4757 0.09375H28.7218C27.6808 0.09375 26.8369 0.937673 26.8369 1.97871V3.02376H39.3151V4.10013H26.8369C26.8369 11.3387 26.8369 10.935 33.2335 10.935V12.442H26.4361C25.3951 12.442 24.5512 13.2858 24.5511 14.3268L24.551 15.1598H44.1155C45.1565 15.1598 46.0004 14.3158 46.0004 13.2748V12.442H37.2971V10.935C40.7416 10.892 43.4505 10.2713 44.3744 9.96631L43.7286 7.19467C41.6189 8.18493 34.4089 8.17656 31.0812 8.00823V6.92936C39.7048 6.92936 42.9373 6.22827 43.4757 5.87772V0.09375Z" fill="#4190FF"/>
<path d="M42.9874 23.1546C44.3572 15.3604 48.0328 16.3651 28.3845 16.4323C27.3435 16.4359 26.4967 17.2795 26.4967 18.3205V19.6501C42.2179 19.6501 40.1442 19.4513 38.75 23.1546H42.9874Z" fill="#4190FF"/>
</svg>
